<?xml version="1.0" encoding="utf-8"?>
<?xml-stylesheet type="text/xsl" href="rss1.xsl"?>
<rss version="2.0" xmlns:atom="http://www.w3.org/2005/Atom" xmlns:content="http://purl.org/rss/1.0/modules/content/" xmlns:dc="http://purl.org/dc/elements/1.1/" xmlns:media="http://search.yahoo.com/mrss/">
<channel>
 <title>Getty</title>
 <link>http://www.gettyimg.com/</link>
 <atom:link href="http://www.gettyimg.com/" rel="self" type="application/rss+xml" />

 
                <item>
                <title><![CDATA[【Albums (lossless)】ALAC - Dominic Fike - Sunburn [PRE-RELEASE] [Apple LAC | 24bit/44.1kHz | 1 641 kb/s]]]></title>
                <link><![CDATA[https://sharemania.us/threads/dominic-fike-sunburn-pre-release-apple-lac-24bit-44-1khz-1-641-kb-s.221529/]]></link>
                <description><![CDATA[<article>
<blockquote class="messageText SelectQuoteContainer ugc baseHtml">
<img src="https://a5.mzstatic.com/us/r1000/0/Music116/v4/01/08/95/010895cf-7fb1-65ab-f39d-e29d192de47d/196871158244.jpg" class="bbCodeImage LbImage" alt="[​IMG]" data-url="https://a5.mzstatic.com/us/r1000/0/Music116/v4/01/08/95/010895cf-7fb1-65ab-f39d-e29d192de47d/196871158244.jpg" style=""> <br>
<br>
<b>Album: Sunburn<br>
Artist: Dominic Fike<br>
Genre: Alternative<br>
Release date: 07/07/2023<br>
Format: .m4a <b><b>ALAC (Apple Lossless Audio Codec)</b></b> | 24bit@44.1kHz</b><br>
<br>
<div class="bbCodeBlock bbCodeVfcHH HiddenContent">
<div class="attribution type">Hidden Content:</div>
<blockquote>You must reply before you can see the hidden data contained here.</blockquote>
</div>
<div class="messageTextEndMarker">&nbsp;</div>
</blockquote>
</article>]]></description>
                <author><![CDATA[SonMaxime]]></author>
                </item>

                
                <item>
                <title><![CDATA[【Apple Music】WEB-RiP - Olivia Addams - Scrisori în minor (by Carla's Dreams) (1080p)]]></title>
                <link><![CDATA[https://sharemania.us/threads/olivia-addams-scrisori-%C3%AEn-minor-by-carlas-dreams-1080p.221536/]]></link>
                <description><![CDATA[<article>
<blockquote class="messageText SelectQuoteContainer ugc baseHtml">
<img src="https://i.imgur.com/tWC9y2e.jpg" class="bbCodeImage LbImage" alt="[​IMG]" data-url="https://i.imgur.com/tWC9y2e.jpg" style=""><br>
<br>
<div class="bbCodeBlock bbCodeCode">
<div class="type">Code:</div>
<pre>General
Complete name                  : C:\Users\asus\Desktop\Olivia Addams - Scrisori în minor (by Carla's Dreams).mp4
Format                         : MPEG-4
Format profile                 : Base Media
Codec ID                       : isom (isom/iso2/avc1/mp41)
File size                      : 313 MiB
Duration                       : 4 min 14 s
Overall bit rate               : 10.3 Mb/s
Frame rate                     : 25.000 FPS
Movie name                     : Scrisori În Minor
Performer                      : Olivia Addams
Genre                          : Pop
ContentType                    : Music Video
Recorded date                  : 2022-03-02 08:00:00 UTC
Writing application            : Lavf57.29.101
Copyright                      : ℗ 2022 Global Records

Video
ID                             : 1
Format                         : AVC
Format/Info                    : Advanced Video Codec
Format profile                 : High@L4
Format settings                : CABAC / 4 Ref Frames
Format settings, CABAC         : Yes
Format settings, Reference fra : 4 frames
Codec ID                       : avc1
Codec ID/Info                  : Advanced Video Coding
Duration                       : 4 min 14 s
Bit rate                       : 10.1 Mb/s
Width                          : 1 920 pixels
Height                         : 942 pixels
Display aspect ratio           : 2.038
Frame rate mode                : Constant
Frame rate                     : 25.000 FPS
Color space                    : YUV
Chroma subsampling             : 4:2:0
Bit depth                      : 8 bits
Scan type                      : Progressive
Bits/(Pixel*Frame)             : 0.223
Stream size                    : 305 MiB (97%)
Color range                    : Limited
Color primaries                : BT.709
Transfer characteristics       : BT.709
Matrix coefficients            : BT.709
Codec configuration box        : avcC

Audio
ID                             : 2
Format                         : AAC LC
Format/Info                    : Advanced Audio Codec Low Complexity
Codec ID                       : mp4a-40-2
Duration                       : 4 min 14 s
Bit rate mode                  : Constant
Bit rate                       : 265 kb/s
Channel(s)                     : 2 channels
Channel layout                 : L R
Sampling rate                  : 48.0 kHz
Frame rate                     : 46.875 FPS (1024 SPF)
Compression mode               : Lossy
Stream size                    : 7.96 MiB (3%)
Default                        : Yes
Alternate group                : 1

</pre>
</div>
<div class="bbCodeBlock bbCodeVfcHH HiddenContent">
<div class="attribution type">Hidden Content:</div>
<blockquote>You must either reply or click 'Like' to see the hidden information contained here.</blockquote>
</div>
<div class="messageTextEndMarker">&nbsp;</div>
</blockquote>
</article>]]></description>
                <author><![CDATA[vitalya3]]></author>
                </item>

                
                <item>
                <title><![CDATA[【Unreleased/Unofficial (lossy)】M4A - 3LW - Point of No Return]]></title>
                <link><![CDATA[https://sharemania.us/threads/3lw-point-of-no-return.221527/]]></link>
                <description><![CDATA[<article>
<blockquote class="messageText SelectQuoteContainer ugc baseHtml">
<b><i><img src="https://images.genius.com/cd5cb2c1dc8c3ef211d63ca013525f14.1000x1000x1.jpg" class="bbCodeImage LbImage" alt="[​IMG]" data-url="https://images.genius.com/cd5cb2c1dc8c3ef211d63ca013525f14.1000x1000x1.jpg" style=""> <br>
<br>
Point of No Return</i></b> was intended to be the third studio album by American girl group 3LW, via So So Def Recordings. Originally planned for an August 15, 2006 release date, the album was pushed back numerous times due to Bailon and Williams' work with The Cheetah Girls.<br>
<ol>
<li>Feelin' You (feat. Jermaine Dupree)</li>
<li>You Ain't Ready</li>
<li>Strictly Business</li>
<li>Do Ya</li>
<li>Throwback</li>
<li>The Club Is Over</li>
<li>Hatin' Ass Chick</li>
<li>Point of No Return</li>
<li>Keep It Sexy</li>
<li>Phone Sex</li>
<li>Hot</li>
<li>Ain't Enough</li>
<li>I Wish</li>
<li>Xtra Time</li>
<li>It's Not All About Me</li>
<li>Up to You</li>
</ol>All tracks are in M4A losssy format, complete with tags, lyrics and artwork. Lyrics and track listing confirmed by <a href="https://genius.com/albums/3lw/Point-of-no-return-shelved" target="_blank" class="externalLink" rel="nofollow">Genius</a>.<br>
<br>
<div class="bbCodeBlock bbCodeVfcHH HiddenContent">
<div class="attribution type">Hidden Content:</div>
<blockquote>You must reply before you can see the hidden data contained here.</blockquote>
</div>
<div class="messageTextEndMarker">&nbsp;</div>
</blockquote>
</article>]]></description>
                <author><![CDATA[slayage21]]></author>
                </item>

                
                <item>
                <title><![CDATA[【HD Live Performances】Alejandro Fernandez En Vivo Desde Plaza de Toros 2023 Star+.WEB-DL.720p-Tknobi]]></title>
                <link><![CDATA[https://sharemania.us/threads/alejandro-fernandez-en-vivo-desde-plaza-de-toros-2023-star-web-dl-720p-tknobi.221528/]]></link>
                <description><![CDATA[<article>
<blockquote class="messageText SelectQuoteContainer ugc baseHtml">
<div style="text-align: center"><img src="https://i.postimg.cc/8z82Hwqr/Alejandro-Fern-ndez-En-vivo-mkv.jpg" class="bbCodeImage LbImage" alt="[​IMG]" data-url="https://i.postimg.cc/8z82Hwqr/Alejandro-Fern-ndez-En-vivo-mkv.jpg" style=""> ​</div><br>
<b>Setlist</b>:<br>
<br>
<br>
<i><span style="color: #9999ff">Como quien pierde una estrella<br>
El rey<br>
De qué manera te olvido<br>
Acá entre nos<br>
Hermoso cariño<br>
Para siempre<br>
Me voy a quitar de en medio<br>
Por tu maldito amor<br>
Las llaves de mi alma<br>
Mátalas<br>
Caballero<br>
Se me va la voz<br>
México lindo y querido<br>
Volver, volver<br>
Nube viajera<br>
Tantita pena<br>
Me dediqué a perderte<br>
Canta Corazón<br>
No<br>
Decepciones<br>
Te olvidé<br>
Te voy a perder<br>
Amor tumbado<br>
Sé que te duele<br>
Perdón<br>
Mujeres divinas<br>
Mentí<br>
Inexperto en olvidar<br>
Abrázame<br>
Me hace tanto bien<br>
Qué lástima<br>
Qué voy a hacer con mi amor<br>
Cascos ligeros<br>
No lo beses<br>
Que digan misa (no fue mi culpa)<br>
Quiero que vuelvas<br>
Hoy tengo ganas de ti<br>
La mesa 20<br>
No sé olvidar<br>
Si tú supieras<br>
Estuve<br>
Estos celos<br>
Es la mujer<br>
Que seas muy feliz<br>
Tu regresarás<br>
¿Dónde vas tan sola?<br>
</span></i><br>
<div style="text-align: center"><i><span style="color: #9999ff">
<div class="bbCodeBlock bbCodeVfcHH HiddenContent">
<div class="attribution type">Hidden Content:</div>
<blockquote>You must either reply or click 'Like' to see the hidden information contained here.</blockquote>
</div></span></i>​</div>
<div class="messageTextEndMarker">&nbsp;</div>
</blockquote>
</article>]]></description>
                <author><![CDATA[tknobi]]></author>
                </item>

                
                <item>
                <title><![CDATA[【Requests】[REQ VID] - robin thicke - blurred lines MV in 4k UHD]]></title>
                <link><![CDATA[https://sharemania.us/threads/robin-thicke-blurred-lines-mv-in-4k-uhd.221538/]]></link>
                <description><![CDATA[<article>
<blockquote class="messageText SelectQuoteContainer ugc baseHtml">
anyone still keep the file?<br>
i see the old post in our forum, the MV was remastered in 4k uhd but the link had been gone.<br>
if you has the file please share with me, i want to keep it for my collection<br>
not gonna lie i really love Emily Ratajkowski's body in this music video.<br>
<br>
thank you guys.<img src="styles/default/xenforo/clear.png" class="mceSmilieSprite mceSmilie49" alt=":grimacing:" title="Grimacing    :grimacing:">
<div class="messageTextEndMarker">&nbsp;</div>
</blockquote>
</article>]]></description>
                <author><![CDATA[itd]]></author>
                </item>

                
                <item>
                <title><![CDATA[【Albums (lossless)】FLAC - Harry Styles Unreleased 2022 (by Yennefer) reupload please &lt;3]]></title>
                <link><![CDATA[https://sharemania.us/threads/harry-styles-unreleased-2022-by-yennefer-reupload-please-3.221530/]]></link>
                <description><![CDATA[<article>
<blockquote class="messageText SelectQuoteContainer ugc baseHtml">
01 Medicine<br>
02 Anna<br>
03 Hunger<br>
04 Trouble<br>
05 Without You<br>
06 Baby Honey<br>
07 Already Home<br>
08 Lay Down<br>
09 Complicated Freak<br>
Please reupload &lt;3
<div class="messageTextEndMarker">&nbsp;</div>
</blockquote>
</article>]]></description>
                <author><![CDATA[gianfranco23]]></author>
                </item>

                
                <item>
                <title><![CDATA[【Apple Music】WEB-RiP - Inna &amp; Sash! - Rock My Body (1080p)]]></title>
                <link><![CDATA[https://sharemania.us/threads/inna-sash-rock-my-body-1080p.221532/]]></link>
                <description><![CDATA[<article>
<blockquote class="messageText SelectQuoteContainer ugc baseHtml">
<img src="https://i.imgur.com/uejDaim.jpg" class="bbCodeImage LbImage" alt="[​IMG]" data-url="https://i.imgur.com/uejDaim.jpg" style=""><br>
<br>
<div class="bbCodeBlock bbCodeCode">
<div class="type">Code:</div>
<pre>General
Complete name                  : C:\Users\asus\Desktop\Inna &amp; Sash! - Rock My Body.mp4
Format                         : MPEG-4
Format profile                 : Base Media
Codec ID                       : isom (isom/iso2/avc1/mp41)
File size                      : 114 MiB
Duration                       : 2 min 22 s
Overall bit rate               : 6 704 kb/s
Frame rate                     : 25.000 FPS
Movie name                     : Rock My Body
Performer                      : R3HAB, INNA &amp; Sash!
Genre                          : Dance
ContentType                    : Music Video
Recorded date                  : 2023-04-28 07:00:00 UTC
Writing application            : Lavf57.29.101
Copyright                      : ℗ Under exclusive license to Spinnin' Records B.V., © 2023 CYB3RPVNK

Video
ID                             : 1
Format                         : AVC
Format/Info                    : Advanced Video Codec
Format profile                 : High@L4
Format settings                : CABAC / 5 Ref Frames
Format settings, CABAC         : Yes
Format settings, Reference fra : 5 frames
Codec ID                       : avc1
Codec ID/Info                  : Advanced Video Coding
Duration                       : 2 min 22 s
Bit rate                       : 6 445 kb/s
Width                          : 1 920 pixels
Height                         : 800 pixels
Display aspect ratio           : 2.40:1
Frame rate mode                : Constant
Frame rate                     : 25.000 FPS
Color space                    : YUV
Chroma subsampling             : 4:2:0
Bit depth                      : 8 bits
Scan type                      : Progressive
Bits/(Pixel*Frame)             : 0.168
Stream size                    : 110 MiB (96%)
Color range                    : Limited
Color primaries                : BT.709
Transfer characteristics       : BT.709
Matrix coefficients            : BT.709
Codec configuration box        : avcC

Audio
ID                             : 2
Format                         : AAC LC
Format/Info                    : Advanced Audio Codec Low Complexity
Codec ID                       : mp4a-40-2
Duration                       : 2 min 22 s
Duration_LastFrame             : -9 ms
Bit rate mode                  : Constant
Bit rate                       : 254 kb/s
Channel(s)                     : 2 channels
Channel layout                 : L R
Sampling rate                  : 48.0 kHz
Frame rate                     : 46.875 FPS (1024 SPF)
Compression mode               : Lossy
Stream size                    : 4.34 MiB (4%)
Default                        : Yes
Alternate group                : 1

</pre>
</div>
<div class="bbCodeBlock bbCodeVfcHH HiddenContent">
<div class="attribution type">Hidden Content:</div>
<blockquote>You must either reply or click 'Like' to see the hidden information contained here.</blockquote>
</div>
<div class="messageTextEndMarker">&nbsp;</div>
</blockquote>
</article>]]></description>
                <author><![CDATA[vitalya3]]></author>
                </item>

                
                <item>
                <title><![CDATA[【Apple Music】WEB-RiP - Blondie - Heart Of Glass (1080p)]]></title>
                <link><![CDATA[https://sharemania.us/threads/blondie-heart-of-glass-1080p.221537/]]></link>
                <description><![CDATA[<article>
<blockquote class="messageText SelectQuoteContainer ugc baseHtml">
<img src="https://i.imgur.com/BeWlZQb.jpg" class="bbCodeImage LbImage" alt="[​IMG]" data-url="https://i.imgur.com/BeWlZQb.jpg" style=""><br>
<br>
<div class="bbCodeBlock bbCodeCode">
<div class="type">Code:</div>
<pre>General
Complete name                  : C:\Users\asus\Desktop\Blondie - Heart Of Glass.mp4
Format                         : MPEG-4
Format profile                 : Base Media
Codec ID                       : isom (isom/iso2/avc1/mp41)
File size                      : 181 MiB
Duration                       : 3 min 42 s
Overall bit rate               : 6 829 kb/s
Frame rate                     : 25.000 FPS
Movie name                     : Heart of Glass
Performer                      : Blondie
Genre                          : Rock
ContentType                    : Music Video
Recorded date                  : 2007-01-01 08:00:00 UTC
Writing application            : Lavf57.29.101
Copyright                      : A Capitol Records Release; ℗ 2005 Capitol Records, LLC

Video
ID                             : 1
Format                         : AVC
Format/Info                    : Advanced Video Codec
Format profile                 : High@L4
Format settings                : CABAC / 5 Ref Frames
Format settings, CABAC         : Yes
Format settings, Reference fra : 5 frames
Codec ID                       : avc1
Codec ID/Info                  : Advanced Video Coding
Duration                       : 3 min 42 s
Bit rate                       : 6 529 kb/s
Width                          : 1 390 pixels
Height                         : 1 076 pixels
Display aspect ratio           : 1.292
Frame rate mode                : Constant
Frame rate                     : 25.000 FPS
Color space                    : YUV
Chroma subsampling             : 4:2:0
Bit depth                      : 8 bits
Scan type                      : Progressive
Bits/(Pixel*Frame)             : 0.175
Stream size                    : 173 MiB (96%)
Language                       : English
Color range                    : Limited
Color primaries                : BT.709
Transfer characteristics       : BT.709
Matrix coefficients            : BT.709
Codec configuration box        : avcC

Audio
ID                             : 2
Format                         : AAC LC
Format/Info                    : Advanced Audio Codec Low Complexity
Codec ID                       : mp4a-40-2
Duration                       : 3 min 42 s
Bit rate mode                  : Constant
Bit rate                       : 297 kb/s
Channel(s)                     : 2 channels
Channel layout                 : L R
Sampling rate                  : 48.0 kHz
Frame rate                     : 46.875 FPS (1024 SPF)
Compression mode               : Lossy
Stream size                    : 7.87 MiB (4%)
Default                        : Yes
Alternate group                : 1

</pre>
</div>
<div class="bbCodeBlock bbCodeVfcHH HiddenContent">
<div class="attribution type">Hidden Content:</div>
<blockquote>You must either reply or click 'Like' to see the hidden information contained here.</blockquote>
</div>
<div class="messageTextEndMarker">&nbsp;</div>
</blockquote>
</article>]]></description>
                <author><![CDATA[vitalya3]]></author>
                </item>

                
                <item>
                <title><![CDATA[【HD Live Performances】FEED - Grammy Awards S01E65 2023 - Main Show 1080i HDTV Backhaul DTS-HD MA 5.1 H.264-ALANiS]]></title>
                <link><![CDATA[https://sharemania.us/threads/grammy-awards-s01e65-2023-main-show-1080i-hdtv-backhaul-dts-hd-ma-5-1-h-264-alanis.221531/]]></link>
                <description><![CDATA[<article>
<blockquote class="messageText SelectQuoteContainer ugc baseHtml">
<div style="padding-left: 30px"><div style="padding-left: 30px"><b><span style="color: rgb(255, 0, 0)"><span style="font-size: 12px">Grammy Awards S01E65 2023 - Main Show 1080i HDTV Backhaul DTS-HD MA 5.1 H.264-ALANiS</span></span></b>​</div></div><br>
<img src="https://images2.imgbox.com/95/ea/iMlxrF5G_o.jpg" class="bbCodeImage LbImage" alt="[​IMG]" data-url="https://images2.imgbox.com/95/ea/iMlxrF5G_o.jpg" style=""><br>
<br>
<div class="bbCodeBlock bbCodeCode">
<div class="type">Code:</div>
<pre>General
Unique ID                      : 271088689157002108606483648870401967332 (0xCBF1C84B93BE50D3BC7150E1C08C04E4)
Format                         : Matroska
Format version                 : Version 4
File size                      : 35.1 GiB
Duration                       : 2 h 54 min
Overall bit rate mode          : Variable
Overall bit rate               : 28.8 Mb/s
Encoded date                   : UTC 2023-05-25 22:07:18
Writing application            : mkvmerge v67.0.0.105 ('Under Stars') 64-bit
Writing library                : libebml v1.4.2 + libmatroska v1.6.4

Video
ID                             : 1
Format                         : AVC
Format/Info                    : Advanced Video Codec
Format profile                 : High@L4.1
Format settings                : CABAC / 4 Ref Frames
Format settings, CABAC         : Yes
Format settings, Reference fra : 4 frames
Codec ID                       : V_MPEG4/ISO/AVC
Duration                       : 2 h 54 min
Bit rate                       : 25.0 Mb/s
Width                          : 1 920 pixels
Height                         : 1 080 pixels
Display aspect ratio           : 16:9
Frame rate mode                : Variable
Frame rate                     : 59.940 (59940/1000) FPS
Original frame rate            : 29.970 (30000/1001) FPS
Color space                    : YUV
Chroma subsampling             : 4:2:0
Bit depth                      : 8 bits
Scan type                      : Interlaced
Scan type, store method        : Separated fields
Scan order                     : Top Field First
Bits/(Pixel*Frame)             : 0.201
Stream size                    : 30.6 GiB (87%)
Default                        : Yes
Forced                         : No
Color range                    : Limited
Color primaries                : BT.709
Transfer characteristics       : BT.709
Matrix coefficients            : BT.709

Audio
ID                             : 2
Format                         : DTS XLL
Format/Info                    : Digital Theater Systems
Commercial name                : DTS-HD Master Audio
Codec ID                       : A_DTS
Duration                       : 2 h 54 min
Bit rate mode                  : Variable
Bit rate                       : 3 738 kb/s
Channel(s)                     : 6 channels
Channel layout                 : C L R Ls Rs LFE
Sampling rate                  : 48.0 kHz
Frame rate                     : 93.750 FPS (512 SPF)
Bit depth                      : 24 bits
Compression mode               : Lossless
Stream size                    : 4.56 GiB (13%)
Language                       : English
Default                        : Yes
Forced                         : No

Menu
00:00:51.000                   : en:Bad Bunny - El Apagón + Después de la Playa
00:12:55.000                   : en:Brandi Carlile - Broken Horses
00:35:59.000                   : en:Stevie Wonder &amp; WanMor &amp; Smokey Robinson &amp; Chris Stapleton - Tribute to Berry Gordy &amp; Smokey Robinson
00:51:20.000                   : en:Lizzo - About Damn Time + Special
01:01:06.000                   : en:Harry Styles - As It Was
01:10:51.000                   : en:Kacey Musgraves + Quavo + Maverick City Music + Sheryl Crow + Mick Fleetwood + Bonnie Raitt - In Memoriam
01:27:44.000                   : en:Sam Smith and Kim Petras - Unholy
01:36:02.000                   : en:Mary J. Blige - Good Morning + Gorgeous
01:47:39.000                   : en:50 Years of Hip-Hop
02:06:29.000                   : en:Luke Combs - Going, Going, Gone
02:29:56.000                   : en:Steve Lacy + Thundercat - Bad Habit
02:44:40.000                   : en:DJ Khaled - God Did

</pre>
</div>
<div class="bbCodeBlock bbCodeVfcHH HiddenContent">
<div class="attribution type">Hidden Content:</div>
<blockquote>You must either reply or click 'Like' to see the hidden information contained here.</blockquote>
</div><br>
<br>
<img src="styles/default/xenforo/smilies/super_man-48.png" class="mceSmilie" alt=":super:" title="Super Man    :super:"><img src="styles/default/xenforo/smilies/super_man-48.png" class="mceSmilie" alt=":super:" title="Super Man    :super:"><img src="styles/default/xenforo/smilies/super_man-48.png" class="mceSmilie" alt=":super:" title="Super Man    :super:">
<div class="messageTextEndMarker">&nbsp;</div>
</blockquote>
</article>]]></description>
                <author><![CDATA[Dream66]]></author>
                </item>

                
                <item>
                <title><![CDATA[【Apple Music】WEB-RiP - Sarsa - Sentymenty (1080p)]]></title>
                <link><![CDATA[https://sharemania.us/threads/sarsa-sentymenty-1080p.221535/]]></link>
                <description><![CDATA[<article>
<blockquote class="messageText SelectQuoteContainer ugc baseHtml">
<img src="https://i.imgur.com/SW4ZoSB.jpg" class="bbCodeImage LbImage" alt="[​IMG]" data-url="https://i.imgur.com/SW4ZoSB.jpg" style=""><br>
<br>
<br>
<div class="bbCodeBlock bbCodeCode">
<div class="type">Code:</div>
<pre>General
Complete name                  : C:\Users\asus\Desktop\Sarsa - Sentymenty.mp4
Format                         : MPEG-4
Format profile                 : Base Media
Codec ID                       : isom (isom/iso2/avc1/mp41)
File size                      : 146 MiB
Duration                       : 3 min 14 s
Overall bit rate               : 6 315 kb/s
Frame rate                     : 25.000 FPS
Movie name                     : Sentymenty
Performer                      : Sarsa
Genre                          : Pop
ContentType                    : Music Video
Recorded date                  : 2019-05-03 07:00:00 UTC
Writing application            : Lavf57.29.101
Copyright                      : ℗ 2019 Universal Music Polska

Video
ID                             : 1
Format                         : AVC
Format/Info                    : Advanced Video Codec
Format profile                 : High@L4.1
Format settings                : CABAC / 5 Ref Frames
Format settings, CABAC         : Yes
Format settings, Reference fra : 5 frames
Codec ID                       : avc1
Codec ID/Info                  : Advanced Video Coding
Duration                       : 3 min 14 s
Bit rate                       : 6 060 kb/s
Width                          : 1 912 pixels
Height                         : 796 pixels
Display aspect ratio           : 2.40:1
Frame rate mode                : Constant
Frame rate                     : 25.000 FPS
Color space                    : YUV
Chroma subsampling             : 4:2:0
Bit depth                      : 8 bits
Scan type                      : Progressive
Bits/(Pixel*Frame)             : 0.159
Stream size                    : 141 MiB (96%)
Color range                    : Limited
Color primaries                : BT.709
Transfer characteristics       : BT.709
Matrix coefficients            : BT.709
Codec configuration box        : avcC

Audio
ID                             : 2
Format                         : AAC LC
Format/Info                    : Advanced Audio Codec Low Complexity
Codec ID                       : mp4a-40-2
Duration                       : 3 min 14 s
Bit rate mode                  : Constant
Bit rate                       : 252 kb/s
Channel(s)                     : 2 channels
Channel layout                 : L R
Sampling rate                  : 48.0 kHz
Frame rate                     : 46.875 FPS (1024 SPF)
Compression mode               : Lossy
Stream size                    : 5.84 MiB (4%)
Default                        : Yes
Alternate group                : 1

</pre>
</div>
<div class="bbCodeBlock bbCodeVfcHH HiddenContent">
<div class="attribution type">Hidden Content:</div>
<blockquote>You must either reply or click 'Like' to see the hidden information contained here.</blockquote>
</div>
<div class="messageTextEndMarker">&nbsp;</div>
</blockquote>
</article>]]></description>
                <author><![CDATA[vitalya3]]></author>
                </item>

                </channel></rss>